<?xml version="1.0" standalone="no"?><!DOCTYPE svg PUBLIC "-//W3C//DTD SVG 1.1//EN" "http://www.w3.org/Graphics/SVG/1.1/DTD/svg11.dtd"><svg t="1781772923961" class="icon" viewBox="0 0 1280 1024" version="1.1" xmlns="http://www.w3.org/2000/svg" p-id="1864" xmlns:xlink="http://www.w3.org/1999/xlink" width="250" height="200"><path d="M279.1424 555.1616v240.5888a42.496 42.496 0 0 0 85.0432 0v-240.64a42.496 42.496 0 0 0-85.0432 0z m232.6016-163.584v404.1728a42.496 42.496 0 0 0 85.0432 0V391.5776a42.496 42.496 0 1 0-84.992 0z m463.0528 0v404.1728a42.496 42.496 0 0 0 85.0432 0V391.5776a42.496 42.496 0 1 0-85.0432 0z m-230.4 163.584v240.5888a42.496 42.496 0 0 0 84.992 0v-240.64a42.496 42.496 0 0 0-84.992 0z" fill="#4A4A4A" p-id="1865"></path><path d="M1210.3168 940.3904H85.0432V42.6496A42.496 42.496 0 0 0 0 42.6496v939.1616A42.9056 42.9056 0 0 0 42.1888 1024h1168.128a42.496 42.496 0 1 0 0-85.0432v1.4336z" fill="#4A4A4A" p-id="1866"></path><path d="M772.3008 353.2288a18.8416 18.8416 0 0 1-2.4064 0.8192l3.584 13.7216 2.8672-2.7136V356.864l-3.5328-3.6864h-0.512z m-511.0784 26.624l3.8912 5.5296-21.8624 14.6944a69.3248 69.3248 0 0 1-96.256-18.9952 69.1712 69.1712 0 0 1 18.432-95.7952L504.0128 44.1344c4.1472-2.4576 8.6016-4.4032 13.2096-5.888a68.1984 68.1984 0 0 1 84.6848 13.0048l167.3216 199.9872 290.2016-204.8a69.376 69.376 0 0 1 77.568 114.944L801.792 395.264a66.304 66.304 0 0 1-18.944 8.2432l-6.4512 0.8704h-25.5488l-13.1072-13.824h-0.9216l-5.4272-2.7648a68.7104 68.7104 0 0 1-17.5104-12.8l-173.824-189.952L261.2224 379.904z" fill="#10BCAE" p-id="1867"></path></svg>